<?xml version="1.0" standalone="no"?>
<!DOCTYPE svg PUBLIC "-//W3C//DTD SVG 20010904//EN"
 "http://www.w3.org/TR/2001/REC-SVG-20010904/DTD/svg10.dtd">
<svg version="1.0" xmlns="http://www.w3.org/2000/svg"
 width="192.000000pt" height="192.000000pt" viewBox="0 0 192.000000 192.000000"
 preserveAspectRatio="xMidYMid meet">

<g transform="translate(0.000000,192.000000) scale(0.100000,-0.100000)"
fill="#000000" stroke="none">
<path d="M0 960 l0 -960 960 0 960 0 0 960 0 960 -960 0 -960 0 0 -960z m1091
426 c16 -34 3 -88 -26 -116 -52 -49 -143 -18 -131 44 7 35 22 53 61 78 43 26
83 24 96 -6z m-147 -16 c-6 -6 -26 -19 -44 -29 -19 -10 -41 -28 -49 -41 -15
-22 -14 -22 7 -16 28 9 29 -5 2 -22 -12 -7 -18 -17 -15 -22 3 -5 0 -12 -6 -16
-8 -4 -9 -3 -5 4 4 7 3 12 -3 12 -9 0 -24 -17 -27 -30 0 -3 -4 -13 -8 -23 -9
-20 -1 -47 14 -47 6 0 13 14 17 31 7 38 68 74 83 49 7 -11 1 -19 -23 -30 -22
-10 -33 -23 -35 -41 l-3 -26 87 -2 c109 -3 208 8 179 20 -11 4 -14 8 -7 8 6 1
12 8 12 17 0 17 2 17 93 -7 22 -6 36 -15 35 -23 -2 -7 10 -24 26 -38 25 -21
28 -29 22 -59 -13 -72 -105 -150 -224 -191 -53 -18 -88 -22 -172 -22 -115 0
-158 15 -228 75 -18 16 -40 29 -50 30 -9 0 -12 3 -7 5 6 2 9 19 7 38 -3 28 0
34 20 40 22 6 22 7 5 20 -10 8 -17 16 -16 18 2 1 -3 25 -10 52 -15 61 -3 80
31 49 l23 -22 25 51 c33 67 105 139 172 172 56 27 90 34 72 16z m347 -413
c-10 -9 -11 -8 -5 6 3 10 9 15 12 12 3 -3 0 -11 -7 -18z m-685 -34 c21 -27 28
-39 15 -28 -24 21 -66 75 -58 75 3 0 22 -21 43 -47z m674 13 c0 -2 -8 -10 -17
-17 -16 -13 -17 -12 -4 4 13 16 21 21 21 13z m-609 -73 c13 -16 12 -17 -3 -4
-10 7 -18 15 -18 17 0 8 8 3 21 -13z m544 7 c-3 -6 -21 -17 -38 -26 -36 -19
-31 -9 10 17 34 21 36 22 28 9z m-500 -38 c-3 -3 -11 0 -18 7 -9 10 -8 11 6 5
10 -3 15 -9 12 -12z m385 -22 c-8 -5 -22 -9 -30 -9 -10 0 -8 3 5 9 27 12 43
12 25 0z m-53 -16 c-3 -3 -12 -4 -19 -1 -8 3 -5 6 6 6 11 1 17 -2 13 -5z m-89
-11 c-10 -2 -28 -2 -40 0 -13 2 -5 4 17 4 22 1 32 -1 23 -4z m-263 -92 c3 -5
-4 -16 -16 -24 -19 -14 -20 -15 -2 -19 10 -3 26 2 36 11 16 13 20 13 39 -6
l21 -22 18 22 19 22 20 -24 c17 -20 21 -21 26 -7 3 9 15 16 25 16 13 0 19 7
19 21 0 12 5 19 13 17 7 -3 13 -28 15 -66 l3 -62 -34 0 c-23 0 -37 6 -41 16
-5 14 -9 12 -25 -7 -19 -23 -20 -23 -40 -5 -19 17 -21 17 -37 2 -22 -22 -36
-17 -55 22 -17 33 -28 30 -42 -10 -13 -36 -27 -17 -27 37 0 41 4 56 18 64 22
13 39 14 47 2z m353 -3 c7 -7 12 -21 12 -32 0 -18 1 -18 20 -1 10 9 26 15 35
12 20 -8 19 -43 -2 -57 -15 -9 -15 -11 -2 -7 9 3 22 0 28 -6 16 -16 27 1 14
22 -16 26 3 54 32 47 17 -4 27 -1 34 11 9 17 11 17 25 -2 18 -23 20 -35 6 -35
-5 0 -10 -11 -10 -25 0 -14 5 -25 10 -25 6 0 10 -7 10 -16 0 -10 -7 -14 -22
-12 -18 2 -24 10 -26 40 -4 51 -32 61 -29 10 l2 -37 -53 -2 c-50 -3 -53 -1
-67 30 l-15 32 5 -37 c7 -43 -8 -51 -26 -16 l-12 22 -8 -22 c-15 -41 -29 -23
-29 38 0 46 4 61 18 69 23 14 36 13 50 -1z m274 -35 c10 -9 18 -26 18 -39 0
-22 -23 -54 -39 -54 -16 0 -33 30 -33 55 0 23 17 55 30 55 3 0 14 -7 24 -17z"/>
<path d="M720 616 c0 -8 5 -18 10 -21 6 -3 10 3 10 14 0 12 -4 21 -10 21 -5 0
-10 -6 -10 -14z"/>
<path d="M800 610 c0 -11 5 -20 10 -20 6 0 10 9 10 20 0 11 -4 20 -10 20 -5 0
-10 -9 -10 -20z"/>
<path d="M880 616 c0 -9 5 -16 10 -16 6 0 10 4 10 9 0 6 -4 13 -10 16 -5 3
-10 -1 -10 -9z"/>
<path d="M1010 649 c0 -5 5 -7 10 -4 6 3 10 8 10 11 0 2 -4 4 -10 4 -5 0 -10
-5 -10 -11z"/>
<path d="M1290 616 c0 -8 5 -18 10 -21 6 -3 10 3 10 14 0 12 -4 21 -10 21 -5
0 -10 -6 -10 -14z"/>
</g>
</svg>
